<?xml version="1.0" encoding="utf-8"?>
<!-- Generator: Adobe Illustrator 21.0.2, SVG Export Plug-In . SVG Version: 6.00 Build 0)  -->
<!DOCTYPE svg PUBLIC "-//W3C//DTD SVG 1.1//EN" "http://www.w3.org/Graphics/SVG/1.1/DTD/svg11.dtd">
<svg version="1.1" id="Calque_1" xmlns="http://www.w3.org/2000/svg" xmlns:xlink="http://www.w3.org/1999/xlink" x="0px" y="0px"
	 viewBox="0 0 26 31" style="enable-background:new 0 0 26 31;" xml:space="preserve">
<style type="text/css">
	.st0{fill:#FFFFFF;}
</style>
<path class="st0" d="M14.2,11c0.8-0.6,1.7-1.6,1.7-2.7c0.1-1.8-1.2-2.8-3-2.8c-1.9,0-3,1.4-2.9,3.1C10,9.3,9.6,10,8.7,10H7.9
	c-0.8,0-1.3-0.5-1.4-1.3C6.4,5,8.9,2.3,13,2.3c3.7,0,6.6,2.2,6.5,5.9c0,2.1-1.6,3.8-3,5c-1.4,1.2-2,2.7-2,3.5h-3.6
	C10.9,14.6,12,12.9,14.2,11z"/>
<g>
	<path class="st0" d="M12.9,20.7C12.9,20.7,12.9,20.7,12.9,20.7l-8.8-1c-0.2,0-0.4-0.2-0.4-0.4c0-0.2,0.1-0.4,0.3-0.4l8.7-1.2
		c0,0,0.1,0,0.1,0l9.1,1.2c0.2,0,0.4,0.2,0.4,0.4c0,0.2-0.2,0.4-0.4,0.4L12.9,20.7C12.9,20.7,12.9,20.7,12.9,20.7z M7.4,19.3
		l5.5,0.6l5.6-0.6l-5.7-0.8L7.4,19.3z"/>
</g>
<path class="st0" d="M22.3,23.8c0-0.2-0.2-0.4-0.4-0.4l-9.1-1.2c0,0-0.1,0-0.1,0l-8.7,1.2c-0.2,0-0.3,0.2-0.3,0.4
	c0,0.2,0.1,0.4,0.3,0.4l6.7,1.8l1.9,2.9l1.8-2.7l7.5-2C22.1,24.1,22.3,24,22.3,23.8z M12.9,25.8l-6.7-1.8l6.6-0.9l7,0.9L12.9,25.8z"
	/>
</svg>
