<?xml version="1.0" encoding="utf-8"?>
<!-- Generator: Adobe Illustrator 17.1.0, SVG Export Plug-In . SVG Version: 6.00 Build 0)  -->
<!DOCTYPE svg PUBLIC "-//W3C//DTD SVG 1.1//EN" "http://www.w3.org/Graphics/SVG/1.1/DTD/svg11.dtd">
<svg version="1.1" id="Calque_1" xmlns="http://www.w3.org/2000/svg" xmlns:xlink="http://www.w3.org/1999/xlink" x="0px" y="0px"
	 viewBox="0 0 841.9 595.3" enable-background="new 0 0 841.9 595.3" xml:space="preserve">
<g>
	<polygon fill="#FFFFFF" points="387.6,398.9 387.6,398.9 256.3,383.1 387.6,398.9 387.6,398.9 	"/>
	<polygon fill="#FFFFFF" points="450.1,402.3 583,371.9 450.1,402.3 	"/>
	<path fill="#FFFFFF" d="M631,423.7l-137.1-16.5l137.7-31.5c3-0.7,5-3.4,4.9-6.5c-0.2-3.1-2.5-5.5-5.5-5.9l-164.3-19.8
		c7.7-12.1,20.7-25.4,39-41.3c30.5-26.6,67.7-66.4,68.4-114.9c1.3-87.7-66.4-137.5-150.1-137.5c-92.3,0-150.7,64.4-147.4,148.1
		c0.7,17.3,11.3,29.9,30.5,29.9h17.9c20.6,0,32.5-14.6,31.9-31.9c-1.3-39.2,23.2-71.7,67.1-71.7c41.8,0,69.7,23.9,68.4,65.1
		c-0.7,27.9-21.2,47.8-40.5,63.1c-33,26.1-61.8,53.1-71.9,87.4l-172.4,39.4c-3,0.7-5,3.4-4.9,6.5c0.2,3.1,2.5,5.5,5.5,5.9
		l137.1,16.5l-137.7,31.5c-3,0.7-5,3.4-4.9,6.5c0.2,3.1,2.5,5.5,5.5,5.9L374.2,472c-0.5,2.8-0.8,5.7-0.8,8.6l46.3,61.9l46.3-61.9
		c0-2.2-0.2-4.4-0.5-6.5l166.2-38c3-0.7,5-3.4,4.9-6.5C636.4,426.5,634.1,424,631,423.7z M256.3,383.1l120.6-27.6
		c-0.4,3.6-0.7,7.3-0.7,11.1c0,3.8,0.6,7.5,1.8,10.9h78.4c1.3-3.4,2-7,2.2-10.9c0.1-3.1,0.7-6.3,1.7-9.5L583,371.9l-132.9,30.4
		l-4.8,1.1c0,0,0,0,0,0l-6.9,1.6l-45-5.4c0,0,0,0,0,0l-5.8-0.7l0,0c0,0,0,0,0,0L256.3,383.1z M461.2,460.1l-22.8,5.2l-59.2-7.1
		l-122.8-14.8l131.9-30.2l50.8,6.1c0.3,0,0.5,0,0.8,0c0.1,0,0.1,0,0.2,0c0.1,0,0.2,0,0.2,0c0.3,0,0.6-0.1,0.9-0.1l11.8-2.7
		L583,432.2L461.2,460.1z"/>
</g>
</svg>
