<?xml version="1.0" encoding="utf-8"?>
<!-- Generator: Adobe Illustrator 21.0.2, SVG Export Plug-In . SVG Version: 6.00 Build 0)  -->
<!DOCTYPE svg PUBLIC "-//W3C//DTD SVG 1.1//EN" "http://www.w3.org/Graphics/SVG/1.1/DTD/svg11.dtd">
<svg version="1.1" id="Calque_1" xmlns="http://www.w3.org/2000/svg" xmlns:xlink="http://www.w3.org/1999/xlink" x="0px" y="0px"
	 viewBox="0 0 26 31" style="enable-background:new 0 0 26 31;" xml:space="preserve">
<style type="text/css">
	.st0{fill:#FFFFFF;}
</style>
<g>
	<path class="st0" d="M13.3,15.9l1.8,0.2c0.3-0.8,0.9-1.9,2-2.8c1.5-1.3,3.2-3.1,3.2-5.3c0.1-4-3-6.3-6.9-6.3c-4.3,0-7,2.9-6.8,6.8
		c0.1,0.8,0.6,1.4,1.5,1.4h0.8c1,0,1.5-0.7,1.5-1.5c-0.1-1.8,1.1-3.3,3.1-3.3c1.9,0,3.3,1.1,3.2,3c0,1.3-1,2.2-1.8,2.9
		c-2.1,1.7-3.2,3.3-3.5,5.2l1.9-0.3C13.2,15.9,13.2,15.9,13.3,15.9z"/>
	<path class="st0" d="M22.9,18.2l-7.8-1L13.3,17c0,0-0.1,0-0.1,0l-1.9,0.3l-7.3,1c-0.2,0-0.4,0.2-0.4,0.4c0,0.2,0.2,0.4,0.4,0.4
		l9.3,1.1c0,0,0,0,0,0c0,0,0,0,0,0l9.5-1.1c0.2,0,0.4-0.2,0.4-0.4C23.3,18.4,23.1,18.3,22.9,18.2z M13.3,19.3l-5.8-0.7l4-0.5
		l1.8-0.2l1.7,0.2l4.3,0.6L13.3,19.3z"/>
</g>
<g>
	<path class="st0" d="M13.3,26.5c0,0-0.1,0-0.1,0l-2.9-0.8L13,30l2.7-4.1l-2.4,0.6C13.4,26.5,13.3,26.5,13.3,26.5z"/>
	<path class="st0" d="M23.3,22.6c0-0.2-0.2-0.4-0.4-0.4l-9.6-1.3c0,0-0.1,0-0.1,0L4,22.2c-0.2,0-0.4,0.2-0.4,0.4
		c0,0.2,0.1,0.4,0.3,0.4l6.4,1.7l2.9,0.8c0,0,0.1,0,0.1,0c0,0,0.1,0,0.1,0l2.4-0.6l7.2-1.9C23.1,23,23.3,22.8,23.3,22.6z M16.5,23.9
		l-3.2,0.8l-3.7-1l-3.4-0.9l7-1l7.4,1L16.5,23.9z"/>
</g>
</svg>
