<?xml version="1.0" encoding="utf-8"?>
<!-- Generator: Adobe Illustrator 17.1.0, SVG Export Plug-In . SVG Version: 6.00 Build 0)  -->
<!DOCTYPE svg PUBLIC "-//W3C//DTD SVG 1.1//EN" "http://www.w3.org/Graphics/SVG/1.1/DTD/svg11.dtd">
<svg version="1.1" id="Calque_1" xmlns="http://www.w3.org/2000/svg" xmlns:xlink="http://www.w3.org/1999/xlink" x="0px" y="0px"
	 viewBox="0 0 841.9 595.3" enable-background="new 0 0 841.9 595.3" xml:space="preserve">
<g>
	<path fill="#FFFFFF" d="M558,348.8l-135.9-20.7c-0.8-0.1-1.6-0.1-2.4,0l-135.9,20.7c-3.8,0.6-6.6,3.8-6.7,7.6
		c-0.1,3.8,2.5,7.2,6.3,8l135.9,28.7c0.5,0.1,1.1,0.2,1.6,0.2s1.1-0.1,1.6-0.2l135.9-28.7c3.7-0.8,6.4-4.1,6.3-8
		C564.6,352.6,561.8,349.4,558,348.8z M329.3,357.9l91.6-14l91.6,14l-91.6,19.3L329.3,357.9z"/>
	<path fill="#FFFFFF" d="M558.6,430.6l-135.9-32.1c-1.2-0.3-2.4-0.3-3.6,0l-135.9,32.1c-3.4,0.8-5.9,3.7-6.1,7.2
		c-0.2,3.5,1.9,6.7,5.2,7.9L387,483.6c-0.5,2.4-0.8,4.9-0.8,7.5l37.1,49.7l37.1-49.7c0-3.1-0.4-6.2-1.1-9.1l100.2-36.3
		c3.3-1.2,5.4-4.4,5.2-7.9C564.5,434.3,562,431.4,558.6,430.6z M452.2,467.7l-31.2,11.3l-27.5-10l-80.7-29.2l108.2-25.6l108.2,25.6
		L452.2,467.7z"/>
	<path fill="#FFFFFF" d="M557.3,291.8l-102.7-7c4.6-12,16.6-25,35.6-41.5c24.5-21.3,54.3-53.2,54.8-92.1
		c1.1-70.3-53.2-110.2-120.3-110.2c-74,0-120.9,51.6-118.2,118.7c0.5,13.8,9.1,24,24.5,24h14.4c16.5,0,26.1-11.7,25.6-25.6
		c-1.1-31.4,18.6-57.5,53.8-57.5c33.5,0,55.9,19.2,54.8,52.2c-0.5,22.4-17,38.3-32.5,50.6c-30,23.7-55.6,48.3-60,81.5l-102.6,7
		c-4.1,0.3-7.3,3.7-7.4,7.8c0,4.1,3.1,7.6,7.2,8l135.9,12.7c0.2,0,0.5,0,0.7,0s0.5,0,0.7,0l135.9-12.7c4.1-0.4,7.2-3.9,7.2-8
		C564.7,295.5,561.5,292.1,557.3,291.8z"/>
</g>
</svg>
