<?xml version="1.0" encoding="utf-8"?>
<!-- Generator: Adobe Illustrator 23.0.3, SVG Export Plug-In . SVG Version: 6.00 Build 0)  -->
<svg version="1.1" id="Calque_1" xmlns="http://www.w3.org/2000/svg" xmlns:xlink="http://www.w3.org/1999/xlink" x="0px" y="0px"
	 viewBox="0 0 26 31" style="enable-background:new 0 0 26 31;" xml:space="preserve">
<style type="text/css">
	.st0{fill:#FFFFFF;}
</style>
<path class="st0" d="M17.9,3.8c-0.2-0.4-0.5-0.6-0.9-0.6H2.4c-0.3,0-0.6,0.1-0.8,0.4C1.4,3.8,1.4,4.1,1.4,4.4l2.7,11.3
	c0.1,0.5,0.5,0.8,1,0.8h9l-2.1-1.9h-6L3.7,5.3h12.7l2.7,6l1.5-1.5L17.9,3.8z"/>
<path class="st0" d="M19.9,16.5H22c0.3,0,0.7-0.2,0.8-0.5c0.1-0.3,0.2-0.6,0.1-0.9L22.4,14L19.9,16.5z"/>
<path class="st0" d="M18.8,16.5l1.5-1.5l1.8-1.8l1-1c0.4-0.5,0.4-1.3-0.1-1.8s-1.2-0.5-1.7,0L21,10.7l-1.5,1.5L17,14.7l-4.3-4.3
	c-0.5-0.5-1.3-0.5-1.8,0s-0.5,1.3,0,1.8l4.3,4.3l-4.3,4.3c-0.5,0.5-0.5,1.3,0,1.8c0.3,0.3,0.5,0.4,0.9,0.4c0.3,0,0.6-0.1,0.9-0.4
	l4.3-4.3l4.2,4.3c0.3,0.3,0.5,0.4,0.9,0.4c0.4,0,0.7-0.2,0.9-0.4c0.5-0.5,0.5-1.3,0-1.8L18.8,16.5z"/>
</svg>
