<?xml version="1.0" encoding="utf-8"?>
<!-- Generator: Adobe Illustrator 23.0.3, SVG Export Plug-In . SVG Version: 6.00 Build 0)  -->
<svg version="1.1" id="Calque_1" xmlns="http://www.w3.org/2000/svg" xmlns:xlink="http://www.w3.org/1999/xlink" x="0px" y="0px"
	 viewBox="0 0 26 31" style="enable-background:new 0 0 26 31;" xml:space="preserve">
<style type="text/css">
	.st0{fill:#FFFFFF;}
</style>
<path class="st0" d="M12.7,27.9H5c-0.5,0-0.9-0.3-1-0.8L1.4,15.9c-0.1-0.3,0-0.6,0.2-0.8s0.5-0.4,0.8-0.4h10.3c0.6,0,1,0.4,1,1
	c0,0.6-0.4,1-1,1h-9L5.8,26h6.9c0.6,0,1,0.4,1,1S13.2,27.9,12.7,27.9z"/>
<g>
	<path class="st0" d="M15.5,27.9c-0.1,0-0.2,0-0.3,0c-0.4-0.1-0.6-0.4-0.7-0.8l-0.8-4.9c-0.1-0.3,0.1-0.7,0.3-0.9
		c0.3-0.2,0.6-0.3,0.9-0.2l4.1,1.2c0.3,0.1,0.6,0.4,0.7,0.7s0,0.7-0.2,0.9l-3.3,3.7C16,27.8,15.7,27.9,15.5,27.9z M15.9,23.4
		l0.2,1.3l0.9-1L15.9,23.4z"/>
	<path class="st0" d="M18.8,24.2c-0.1,0-0.2,0-0.3,0L14.4,23c-0.3-0.1-0.5-0.2-0.6-0.5c-0.1-0.2-0.2-0.5-0.1-0.8l5.5-19
		c0.2-0.5,0.7-0.8,1.2-0.7l4.1,1.2c0.3,0.1,0.5,0.2,0.6,0.5c0.1,0.2,0.2,0.5,0.1,0.8l-5.5,19C19.6,23.9,19.2,24.2,18.8,24.2z
		 M15.9,21.3l2.2,0.6l4.9-17l-2.2-0.6L15.9,21.3z"/>
</g>
</svg>
