<?xml version="1.0" encoding="utf-8"?>
<!-- Generator: Adobe Illustrator 21.0.2, SVG Export Plug-In . SVG Version: 6.00 Build 0)  -->
<!DOCTYPE svg PUBLIC "-//W3C//DTD SVG 1.1//EN" "http://www.w3.org/Graphics/SVG/1.1/DTD/svg11.dtd">
<svg version="1.1" id="Calque_1" xmlns="http://www.w3.org/2000/svg" xmlns:xlink="http://www.w3.org/1999/xlink" x="0px" y="0px"
	 viewBox="0 0 26 31" style="enable-background:new 0 0 26 31;" xml:space="preserve">
<style type="text/css">
	.st0{fill:#FFFFFF;}
</style>
<g>
	<polygon class="st0" points="16.1,21.5 12.6,26.7 9.2,21.5 	"/>
</g>
<path class="st0" d="M14.3,12.3c0.9-0.7,1.9-1.7,1.9-3c0.1-2-1.3-3.1-3.3-3.1c-2.1,0-3.3,1.5-3.2,3.4c0,0.8-0.5,1.5-1.5,1.5H7.4
	c-0.9,0-1.4-0.6-1.5-1.4c-0.2-4,2.6-7,7-7c4,0,7.2,2.4,7.1,6.5c0,2.3-1.8,4.2-3.3,5.5c-1.5,1.3-2.2,2.9-2.2,3.8h-3.9
	C10.7,16.2,11.8,14.3,14.3,12.3z"/>
</svg>
