<?xml version="1.0" encoding="utf-8"?>
<!-- Generator: Adobe Illustrator 23.0.3, SVG Export Plug-In . SVG Version: 6.00 Build 0)  -->
<svg version="1.1" id="Calque_1" xmlns="http://www.w3.org/2000/svg" xmlns:xlink="http://www.w3.org/1999/xlink" x="0px" y="0px"
	 viewBox="0 1 26 37" style="enable-background:new 0 0 26 31;" xml:space="preserve">
<style type="text/css">
	.st0{fill:#FFFFFF;}
</style>
<path class="st0" d="M13.8,29.8C13.8,29.8,13.8,29.8,13.8,29.8c-0.4,0-0.7-0.2-0.9-0.5L1.1,9.6C0.9,9.4,0.9,9.1,1,8.8
	C1,8.6,1.2,8.4,1.4,8.2L13,1.4c0.4-0.3,1-0.1,1.3,0.3l10.6,14c0.3,0.4,0.3,0.9,0,1.2L14.6,29.4C14.4,29.6,14.1,29.8,13.8,29.8z
	 M3.3,9.4L14,27l8.8-10.8L13.2,3.6L3.3,9.4z"/>
<path class="st0" d="M21.3,14.3h-3.5c-0.1,0-0.2-0.1-0.2-0.2v-1.6c0-0.1,0.1-0.2,0.2-0.2h3.5c0.1,0,0.2,0.1,0.2,0.2V14
	C21.5,14.2,21.4,14.3,21.3,14.3z M17,14.3h-2c-0.1,0-0.2-0.1-0.2-0.2v-1.6c0-0.1,0.1-0.2,0.2-0.2h2c0.1,0,0.2,0.1,0.2,0.2V14
	C17.2,14.2,17.1,14.3,17,14.3z M13.4,14.3h-1c-0.1,0-0.2-0.1-0.2-0.2v-1.6c0-0.1,0.1-0.2,0.2-0.2h1c0.1,0,0.2,0.1,0.2,0.2V14
	C13.7,14.2,13.6,14.3,13.4,14.3z M9.7,14.3H9.4c-0.1,0-0.2-0.1-0.2-0.2v-1.6c0-0.1,0.1-0.2,0.2-0.2h0.2c0.1,0,0.2,0.1,0.2,0.2V14
	C9.9,14.2,9.8,14.3,9.7,14.3z"/>
<rect x="21.3" y="12.2" class="st0" width="0.5" height="2"/>
</svg>
