<?xml version="1.0" encoding="utf-8"?>

<svg version="1.1" id="Calque_1" xmlns="http://www.w3.org/2000/svg" xmlns:xlink="http://www.w3.org/1999/xlink" x="0px" y="0px"
	 viewBox="0 0 100 100" style="enable-background:new 0 0 100 100;" xml:space="preserve">
<style type="text/css">
	.st0{fill:#FFFFFF;}
</style>

<path class="st0" d="M74.41,30.59a2,2,0,0,0-2.83,0L47.92,54.25,40.33,47.5a2,2,0,0,0-2.66,3l9,8a2,2,0,0,0,2.74-.08l25-25A2,2,0,0,0,74.41,30.59Z"/>
<path class="st0" d="M69,43.5a2,2,0,0,0-1.49,2.4A18,18,0,1,1,50,32a17.87,17.87,0,0,1,10.32,3.27A2,2,0,1,0,62.62,32a22.13,22.13,0,1,0,8.79,13A2,2,0,0,0,69,43.5Z"/>
</svg>
