<?xml version="1.0" encoding="utf-8"?>

<svg version="1.1" id="Calque_1" xmlns="http://www.w3.org/2000/svg" xmlns:xlink="http://www.w3.org/1999/xlink" x="0px" y="0px"
	 viewBox="0 0 100 100" style="enable-background:new 0 0 100 100;" xml:space="preserve">
<style type="text/css">
	.st0{fill:#FFFFFF;}
</style>
<g><path class="st0" d="M20,20c-2.209,0-4,1.791-4,4v52c0,2.209,1.791,4,4,4s4-1.791,4-4V24C24,21.791,22.209,20,20,20z"/>
<path class="st0" d="M80,47H39.157l15.796-15.551c1.563-1.562,1.563-3.972,0-5.533c-0.78-0.781-1.805-1.11-2.828-1.11s-2.048,0.421-2.828,1.203
l-22.125,22.14c-1.563,1.562-1.563,4.11,0,5.672l22.25,22.25c1.561,1.562,4.096,1.562,5.656,0c1.563-1.563,1.563-4.341,0-5.903
L40.157,55H80c2.209,0,4-1.791,4-4S82.209,47,80,47z"/></g>
</svg>
