<?xml version="1.0" encoding="utf-8"?>

<svg xmlns="http://www.w3.org/2000/svg" xmlns:xlink="http://www.w3.org/1999/xlink" version="1.1" id="Calque_1" x="0px" y="0px"
viewBox="0 0 100 100" style="enable-background:new 0 0 100 100;" xml:space="preserve">
<style type="text/css">
	.st0{fill:#FFFFFF;}
</style>
<g>
  <path class="st0" d="M50.578,24.984c-1.561-1.562-4.096-1.562-5.656,0c-1.563,1.563-1.563,4.314,0,5.876L59.843,46H20c-2.209,0-4,1.791-4,4
s1.791,4,4,4h40.843L45.047,69.578c-1.563,1.562-1.563,3.985,0,5.547c0.78,0.781,1.805,1.117,2.828,1.117s2.048-0.418,2.828-1.199
l22.125-22.139c1.563-1.562,1.563-4.108,0-5.67L50.578,24.984z"/>
  <path class="st0" d="M80,20c-2.209,0-4,1.791-4,4v52c0,2.209,1.791,4,4,4s4-1.791,4-4V24C84,21.791,82.209,20,80,20z"/>
</g>
</svg>
