<?xml version="1.0" encoding="utf-8"?>

<svg version="1.1" id="Calque_1" xmlns="http://www.w3.org/2000/svg" xmlns:xlink="http://www.w3.org/1999/xlink" x="0px" y="0px"
viewBox="-5 -5 40 36" style="enable-background:new -5 -5 31 31;"
xml:space="preserve">
<style type="text/css">
	.st0{fill:#FFFFFF;}
</style>

<g>
<path class="st0" d="M27.754,2.892l-9.104,18.21L3.474,11.239L27.754,2.892
M29.967,0c-0.103,0-0.207,0.016-0.309,0.052L0.644,10.026
c-0.345,0.119-0.592,0.424-0.637,0.785c-0.044,0.361,0.121,0.718,0.427,0.916l17.781,11.558c0.218,0.142,0.47,0.214,0.724,0.214
c0.117,0,0.234-0.015,0.35-0.046c0.365-0.1,0.67-0.35,0.84-0.688L30.821,1.38c0.172-0.347,0.119-0.764-0.137-1.055
C30.501,0.116,30.237,0,29.967,0L29.967,0z"/>
<path class="st0" d="M12.307,18.655c-1.727-0.854-1.11-1.794-1.11-1.794s7.112-6.138,9.537-8.445c0.084-0.08,0.099-0.209,0.034-0.305
c-0.063-0.098-0.27-0.135-0.375-0.088L4.834,14v11.094c0,0.375,0.301,0.716,0.641,0.871c0.342,0.155,0.783,0.097,1.066-0.149
l7.244-6.292C13.302,19.209,12.827,18.912,12.307,18.655z"/>
</g>
</svg>
