<?xml version="1.0" encoding="utf-8"?>
<!-- Generator: Adobe Illustrator 23.0.3, SVG Export Plug-In . SVG Version: 6.00 Build 0)  -->
<svg version="1.1" id="Calque_1" xmlns="http://www.w3.org/2000/svg" xmlns:xlink="http://www.w3.org/1999/xlink" x="0px" y="0px"
	 viewBox="0 0 26 31" style="enable-background:new 0 0 26 31;" xml:space="preserve">
<style type="text/css">
	.st0{fill:none;stroke:#2F3E8B;stroke-width:2;stroke-linecap:round;stroke-linejoin:round;stroke-miterlimit:10;}
	.st1{fill:#FFFFFF;}
</style>
<polygon class="st0" points="37.8,23.7 34.5,27.5 34.5,27.5 33.7,22.5 "/>
<rect x="28.6" y="11.5" transform="matrix(0.2769 -0.9609 0.9609 0.2769 14.7434 46.9027)" class="st0" width="19.8" height="4.3"/>
<g>
	<path class="st1" d="M24.8,20.7l-6.7-6.1l0,0l-4.4-4c-0.3-0.3-0.7-0.4-1.1-0.2c-0.3,0.2-0.5,0.4-0.6,0.7l0.1,1.9l0.1,1.6l0,0
		l0.3,8.1l0.1,3.1c0,0.4,0.2,0.7,0.6,0.9c0.1,0.1,0.3,0.1,0.4,0.1c0.2,0,0.4-0.1,0.6-0.2l4.3-3.1l5.7-1.4c0.4-0.1,0.6-0.4,0.7-0.7
		C25,21.1,24.9,20.9,24.8,20.7z M17.8,21.6c-0.1,0-0.2,0-0.3,0.1l-3,2.2l-0.3-7.4l-0.1-2v-0.9l1,0.9l2.2,2l4.5,4.1L17.8,21.6z"/>
	<path class="st1" d="M5.9,14.6L3.7,5.3h12.7l4.1,9.3h-0.6l2.1,1.9h0c0.3,0,0.7-0.2,0.8-0.5c0.1-0.3,0.2-0.6,0.1-0.9l-5-11.3
		c-0.2-0.4-0.5-0.6-0.9-0.6H2.4c-0.3,0-0.6,0.1-0.8,0.4C1.4,3.8,1.4,4.1,1.4,4.4l2.7,11.3c0.1,0.5,0.5,0.8,1,0.8h5.7v-1.9H5.9z"/>
</g>
</svg>
