<?xml version="1.0" encoding="utf-8"?>
<svg version="1.1" id="Calque_1" xmlns="http://www.w3.org/2000/svg" xmlns:xlink="http://www.w3.org/1999/xlink" x="0px" y="0px"
 viewBox="0 -70 420 400" style="enable-background:new 0 0 400 400;" xml:space="preserve">
  <style type="text/css">
  .st0{fill:#FFFFFF;}
  </style>
  <path class="st0" d="M244.179,136.009c-28.794-12.598-46.075-37.881-57.464-60.208c0.42-7.339-0.186-15.201-2.21-23.646 c-3.091-12.891-16.052-20.835-28.935-17.744c-12.889,3.09-20.833,16.044-17.743,28.934c3.69,15.391-3.292,26.028-15.951,43.504 c-12.199,16.843-31.126,43.824-20.36,65.662c2.124,4.307,5.682,7.205,7.942,11.426c3.328,6.215,6.729,12.39,10.007,18.631 c3.827,7.286,11.207,18.179,10.465,26.81c-1.641,1.597-12.69,9.179-73.23,7.38c-9.924-0.26-18.232,7.521-18.527,17.457 s7.521,18.231,17.457,18.527c6.683,0.198,12.978,0.3,18.926,0.3c32.876,0,54.825-3.111,69.136-10.092 c-0.656-1.95-1.027-4.031-1.027-6.2c0-10.752,8.748-19.5,19.5-19.5c1.005,0,1.975,0.004,2.959,0.006 c4.057-18.518-7.255-39.457-20.031-63.078c-1.444-2.673,2.085-9.537,1.944-13.185c-0.258-6.698,6.528-16.067,13.712-25.986 c4.465-6.164,9.459-13.069,13.876-20.852c13.245,19.196,31.554,37.974,57.527,49.338c1.958,0.856,3.997,1.262,6.005,1.262 c5.778,0,11.286-3.359,13.75-8.991C255.229,148.174,251.768,139.329,244.179,136.009z"/>
  <circle class="st0"  cx="147.167" cy="-0.25" r="27.667"/>
  <path class="st0" d="M365.223,248.248c-0.21,0-0.42,0.005-0.631,0.016c-2.809,0.129-5.522,0.194-8.13,0.194 c-20.343,0-34.505-3.917-41.219-11.453c-11.21-12.585-5.077-34.636-2.745-49.312c2.844-17.905-8.896-40.372-30.38-32.219 c-21.896,8.314-35.714,12.545-46.865,12.545c-14.424,0-24.392-7.07-41.64-21.518c-4.213-3.529-9.338-5.253-14.436-5.253 c-6.428,0-12.811,2.74-17.26,8.053c-7.979,9.526-6.727,23.718,2.801,31.696c1.096,0.918,2.178,1.81,3.256,2.693 c15.233,20.943,27.974,36.719,37.648,48.692c2.34,2.896,4.703,5.821,6.893,8.574c-4.314-0.045-9.037-0.144-13.705-0.242 c-9.396-0.196-20.998-0.437-34.475-0.461c-0.727-0.001-1.434-0.005-2.17-0.005c-9.113,0-16.5,7.388-16.5,16.5 c0,1.67,0.253,3.279,0.714,4.798c2.056,6.771,8.343,11.702,15.786,11.702c14.072,0,26.204,0.255,35.953,0.459 c9.899,0.207,19.882,0.656,29.771-0.022c5.744-0.394,19.195-1.315,24.938-13.021c5.68-11.577-1.8-22.832-4.615-27.069 c-3.606-5.426-8.781-11.877-15.856-20.636c5.475,0.155,10.452-2.778,11.625,2.936c0.899,4.387,3.785,8.232,7.762,10.299 c8.471,4.401,19.135-0.398,21.468-9.639c1.686-6.678,2.504-9.886,11.709-13.105c-1.818,16.923-1.134,35.824,11.656,50.183 c11.854,13.307,31.468,19.825,59.796,19.825c3.022,0,6.146-0.074,9.369-0.223c6.896-0.316,12.229-6.164,11.912-13.061 C377.346,253.49,371.838,248.248,365.223,248.248z"/>
  <path class="st0" d="M351.29,211.311c-0.468,0-0.941-0.012-1.414-0.034c-16.064-0.769-28.508-14.463-27.74-30.526 c0.744-15.575,13.532-27.775,29.112-27.775c0.468,0,0.941,0.012,1.414,0.034c7.782,0.372,14.954,3.753,20.193,9.519 s7.92,13.227,7.547,21.008c-0.744,15.575-13.531,27.775-29.109,27.775C351.292,211.311,351.291,211.311,351.29,211.311z"/>
  <path class="st0" d="M351.248,154.475c0.444,0,0.894,0.011,1.343,0.032c15.263,0.73,27.044,13.694,26.313,28.957 c-0.708,14.813-12.939,26.347-27.614,26.347c-0.444,0-0.894-0.011-1.343-0.032c-15.262-0.73-27.043-13.694-26.313-28.957 C324.341,166.008,336.574,154.475,351.248,154.475 M351.248,151.475c-16.383,0-29.828,12.827-30.611,29.203 c-0.807,16.89,12.277,31.289,29.167,32.097c0.494,0.024,0.994,0.036,1.486,0.036c16.383,0,29.828-12.827,30.61-29.203 c0.809-16.89-12.275-31.289-29.166-32.097C352.24,151.486,351.74,151.475,351.248,151.475L351.248,151.475z"/>
</svg>
