<?xml version="1.0" encoding="utf-8"?>

<svg version="1.1" id="Calque_1" xmlns="http://www.w3.org/2000/svg" xmlns:xlink="http://www.w3.org/1999/xlink" x="0px" y="0px"
viewBox="0 0 100 100" style="enable-background:new 0 0 100 100;"
xml:space="preserve">
<style type="text/css">
	.st0{fill:#FFFFFF;}
</style>

<g stroke="none" stroke-width="1" fill="none" fill-rule="evenodd">
<path class="st0" d="M9,46
L26,46 C28.209139,46 30,47.790861 30,50 C30,52.209139 28.209139,54 26,54 L9,54
C6.790861,54 5,52.209139 5,50 C5,47.790861 6.790861,46 9,46 Z M74,46 L91,46
C93.209139,46 95,47.790861 95,50 C95,52.209139 93.209139,54 91,54 L74,54
C71.790861,54 70,52.209139 70,50 C70,47.790861 71.790861,46 74,46 Z M54,9 L54,26
C54,28.209139 52.209139,30 50,30 C47.790861,30 46,28.209139 46,26 L46,9
C46,6.790861 47.790861,5 50,5 C52.209139,5 54,6.790861 54,9 Z M54,74 L54,91
C54,93.209139 52.209139,95 50,95 C47.790861,95 46,93.209139 46,91 L46,74
C46,71.790861 47.790861,70 50,70 C52.209139,70 54,71.790861 54,74 Z
M18.1801948,76.1629509 L30.2010101,64.1421356 C31.7631073,62.5800385
34.2957672,62.5800385 35.8578644,64.1421356 C37.4199615,65.7042328
37.4199615,68.2368927 35.8578644,69.7989899 L23.8370491,81.8198052
C22.2749519,83.3819023 19.742292,83.3819023 18.1801948,81.8198052
C16.6180977,80.257708 16.6180977,77.7250481 18.1801948,76.1629509 Z
M64.1421356,30.2010101 L76.1629509,18.1801948 C77.7250481,16.6180977
80.257708,16.6180977 81.8198052,18.1801948 C83.3819023,19.742292
83.3819023,22.2749519 81.8198052,23.8370491 L69.7989899,35.8578644
C68.2368927,37.4199615 65.7042328,37.4199615 64.1421356,35.8578644
C62.5800385,34.2957672 62.5800385,31.7631073 64.1421356,30.2010101 Z
M23.8370491,18.1801948 L35.8578644,30.2010101 C37.4199615,31.7631073
37.4199615,34.2957672 35.8578644,35.8578644 C34.2957672,37.4199615
31.7631073,37.4199615 30.2010101,35.8578644 L18.1801948,23.8370491
C16.6180977,22.2749519 16.6180977,19.742292 18.1801948,18.1801948
C19.742292,16.6180977 22.2749519,16.6180977 23.8370491,18.1801948 Z
M69.7989899,64.1421356 L81.8198052,76.1629509 C83.3819023,77.7250481
83.3819023,80.257708 81.8198052,81.8198052 C80.257708,83.3819023
77.7250481,83.3819023 76.1629509,81.8198052 L64.1421356,69.7989899
C62.5800385,68.2368927 62.5800385,65.7042328 64.1421356,64.1421356
C65.7042328,62.5800385 68.2368927,62.5800385 69.7989899,64.1421356 Z"
fill="#000000"/></g></svg>
