<?xml version="1.0" encoding="utf-8"?>

<svg version="1.1" id="Calque_1" xmlns="http://www.w3.org/2000/svg" xmlns:xlink="http://www.w3.org/1999/xlink" x="0px" y="0px"
viewBox="0 0 847 847" style="enable-background:new 0 0 847 847;"
xml:space="preserve">
<style type="text/css">
	.st0{fill:#FFFFFF;}
</style>

<g><path class="st0" d="M239 328l369 0c11,0 20,-9 20,-20l0 -234 -409 0 0 234c0,11 9,20 20,20zm-134 -288c193,0 387,0 581,0l131 122 0 570c0,41 -34,74 -75,74 -212,0 -425,0 -637,0 -41,0 -75,-33 -75,-74l0 -617c0,-41 34,-75 75,-75zm568 34l-11 0 0 234c0,30 -24,54 -54,54l-369 0c-30,0 -54,-25 -54,-54l0 -234 -80 0c-23,0 -41,19 -41,41l0 617c0,22 18,40 41,40l43 0 0 -224c0,-48 40,-88 88,-88l375 0c48,0 87,40 87,88l0 224 44 0c23,0 41,-18 41,-40l0 -556 -110 -102zm-62 420l-375 0c-30,0 -54,24 -54,54l0 224 482 0 0 -224c0,-30 -24,-54 -53,-54zm-131 -399l110 0 0 212 -110 0 0 -212zm76 34l-43 0 0 144 43 0 0 -144z"/>
</g>
</svg>
