<?xml version="1.0" encoding="utf-8"?>

<svg version="1.1" id="Calque_1" xmlns="http://www.w3.org/2000/svg" xmlns:xlink="http://www.w3.org/1999/xlink" x="0px" y="0px"
viewBox="2 2 28 28" style="enable-background:new 2 2 28 28;"
xml:space="preserve">
<style type="text/css">
	.st0{fill:#FFFFFF;}
</style>
<path class="st0"
d="M16,2A14,14,0,1,0,30,16,14,14,0,0,0,16,2Zm0,26A12,12,0,1,1,28,16,12,12,0,0,1,16,28Z"/>
<path class="st0"
d="M21.71,10.29a1,1,0,0,0-1.41,0L16,14.59l-4.29-4.29a1,1,0,0,0-1.41,1.41L14.59,16l-4.29,4.29a1,1,0,1,0,1.41,1.41L16,17.41l4.29,4.29a1,1,0,0,0,1.41-1.41L17.41,16l4.29-4.29A1,1,0,0,0,21.71,10.29Z"/>
</svg>
