<?xml version="1.0" encoding="utf-8"?>

<svg version="1.1" id="Calque_1" xmlns="http://www.w3.org/2000/svg" xmlns:xlink="http://www.w3.org/1999/xlink" x="0px" y="0px"
viewBox="0 0 34 34" style="enable-background:new 0 0 34 34;"
xml:space="preserve">
<style type="text/css">
	.st0{fill:#FFFFFF;}
</style>
<g>
<path class="st0"
d="M31.38831,1.09899l-8,1.83331C23.16107,2.98437,23,3.18658,23,3.41967v28.91583c0,0.31989,0.2962,0.5575,0.60846,0.4881
l8-1.77777C31.83722,30.99499,32,30.79205,32,30.55774V1.58636C32,1.26513,31.70142,1.02722,31.38831,1.09899z"/>
<path class="st0"
d="M13,1.63043v28.89569c0,0.22852,0.15485,0.42792,0.37622,0.48444l7,1.78882C20.69238,32.88018,21,32.64135,21,32.31494
V3.17443c0-0.06,0.01001-0.12,0.01996-0.17999l-7.39874-1.84912C13.30566,1.06646,13,1.30511,13,1.63043z"/>
<path class="st0"
d="M10.39514,1.125l-8,1.71552C2.16467,2.88995,2,3.09368,2,3.3294v29.08429c0,0.3222,0.30035,0.5603,0.61414,0.48676
l8-1.87555C10.84015,30.97192,11,30.77032,11,30.53814V1.61383C11,1.29553,10.70642,1.05822,10.39514,1.125z"/>
</g>
</svg>
