<?xml version="1.0" encoding="utf-8"?>

<svg version="1.1" id="Calque_1" xmlns="http://www.w3.org/2000/svg" xmlns:xlink="http://www.w3.org/1999/xlink" x="0px" y="0px"
	 viewBox="0 0 100 100" style="enable-background:new 0 0 100 100;" xml:space="preserve">
<style type="text/css">
	.st0{fill:#FFFFFF;}
</style>
  <path class="st0" d="M76,39H24c-2.8,0-5,2.2-5,5v32c0,1.1,0.4,2.2,1,3c0.3,0.4,0.6,0.7,1,1c0.8,0.6,1.9,1,3,1h52c1.1,0,2.2-0.4,3-1
  c0.4-0.3,0.7-0.6,1-1c0.6-0.8,1-1.9,1-3V44C81,41.2,78.8,39,76,39z
  M24,41h52c0.4,0,0.8,0.1,1.1,0.2l-26.5,21
  c-0.4,0.3-0.9,0.3-1.2,0l-26.5-21C23.2,41.1,23.6,41,24,41z
  M79,76c0,0.5-0.1,1-0.3,1.4l-17-15.1c-0.4-0.4-1-0.3-1.4,0.1
  c-0.4,0.4-0.3,1,0.1,1.4l16.9,15C76.8,78.9,76.4,79,76,79H24c-0.4,0-0.8-0.1-1.2-0.3l16.9-15c0.4-0.4,0.5-1,0.1-1.4
  c-0.4-0.4-1-0.4-1.4-0.1l-17,15.1C21.1,77,21,76.5,21,76V44c0-0.5,0.1-1,0.4-1.4l26.8,21.2c0.5,0.4,1.2,0.7,1.9,0.7s1.3-0.2,1.9-0.7
  l26.8-21.2C78.9,43,79,43.5,79,44V76z"/>
  <path class="st0" d="M57.7,17.7C57.5,17.9,57.3,18,57,18s-0.5-0.1-0.7-0.3L51,12.4V30c0,0.5-0.5,1-1,1s-1-0.5-1-1V12.4l-5.3,5.3
  c-0.4,0.4-1,0.4-1.4,0c-0.4-0.4-0.4-1,0-1.4l7-7c0.4-0.4,1-0.4,1.4,0l7,7C58.1,16.7,58.1,17.3,57.7,17.7z"/>
</svg>
