<?xml version="1.0" encoding="utf-8"?>

<svg version="1.1" id="Calque_1" xmlns="http://www.w3.org/2000/svg" xmlns:xlink="http://www.w3.org/1999/xlink" x="0px" y="0px"
  viewBox="12 0 100 120" style="enable-background:new 0 0 100 100;"
  xml:space="preserve">
  <style type="text/css">
  	.st0{fill:#FFFFFF;}
  </style>

  <g>
  <path class="st0" d="M86.985,47.783c0.001-0.032,0-0.064-0.002-0.097c-0.002-0.037-0.005-0.073-0.012-0.108  c-0.002-0.017-0.002-0.032-0.005-0.048s-0.01-0.029-0.014-0.044c-0.006-0.023-0.011-0.046-0.018-0.068  c-0.004-0.01-0.009-0.019-0.012-0.027c-0.002-0.003-0.003-0.006-0.004-0.009c-0.012-0.031-0.023-0.062-0.038-0.091  c-0.014-0.029-0.03-0.058-0.048-0.086c-0.019-0.031-0.038-0.061-0.06-0.089c-0.015-0.019-0.028-0.036-0.043-0.054  c-0.003-0.003-0.003-0.007-0.006-0.01L68.482,26.644c-0.006-0.006-0.014-0.008-0.02-0.015c-0.03-0.033-0.061-0.067-0.097-0.097  L41.577,4.643c-0.003-0.002-0.007-0.004-0.011-0.007c-0.029-0.023-0.062-0.042-0.094-0.062c-0.022-0.014-0.043-0.031-0.065-0.043  c-0.005-0.002-0.009-0.004-0.014-0.006c-0.031-0.016-0.063-0.027-0.096-0.039c-0.027-0.011-0.053-0.024-0.08-0.032  c-0.004-0.001-0.008-0.002-0.013-0.004c-0.03-0.009-0.062-0.012-0.094-0.018c-0.029-0.005-0.06-0.014-0.089-0.017  c-0.005,0-0.01,0-0.014-0.001c-0.031-0.003-0.062,0-0.093,0c-0.031,0-0.062-0.003-0.093,0c-0.005,0-0.009,0-0.013,0.001  c-0.031,0.003-0.061,0.012-0.091,0.018c-0.03,0.006-0.062,0.01-0.091,0.018c-0.004,0.001-0.009,0.003-0.014,0.005  c-0.028,0.008-0.056,0.022-0.082,0.034c-0.03,0.012-0.062,0.021-0.09,0.036c-0.005,0.003-0.011,0.006-0.015,0.008  c-0.024,0.013-0.047,0.031-0.07,0.046c-0.001,0.001-0.003,0.002-0.005,0.004c-0.027,0.018-0.055,0.032-0.08,0.053  c-0.005,0.004-0.011,0.01-0.016,0.014c-0.004,0.003-0.008,0.004-0.011,0.007c-0.022,0.02-0.04,0.042-0.06,0.062  s-0.042,0.037-0.06,0.059L13.252,36.859c-0.009,0.011-0.015,0.023-0.023,0.035c-0.023,0.029-0.043,0.06-0.062,0.091  c-0.017,0.028-0.033,0.056-0.047,0.085c-0.015,0.03-0.027,0.061-0.039,0.092c-0.012,0.032-0.023,0.063-0.032,0.096  c-0.008,0.032-0.014,0.064-0.02,0.096c-0.005,0.033-0.011,0.066-0.013,0.099c-0.002,0.034-0.002,0.067-0.001,0.101  c0.001,0.032,0.002,0.064,0.006,0.096c0.004,0.034,0.011,0.067,0.019,0.1s0.015,0.065,0.026,0.098  c0.01,0.03,0.022,0.059,0.035,0.088c0.016,0.035,0.032,0.068,0.05,0.102c0.007,0.012,0.011,0.024,0.018,0.036l7.265,11.61  l1.131,21.022c0,0.012,0.004,0.023,0.005,0.035c0.003,0.035,0.009,0.068,0.016,0.102s0.013,0.068,0.023,0.102  c0.008,0.027,0.019,0.055,0.031,0.084c0.014,0.035,0.029,0.072,0.048,0.105c0.006,0.014,0.009,0.025,0.016,0.035l13.865,23.902  c0.005,0.008,0.013,0.014,0.019,0.023c0.007,0.01,0.012,0.021,0.019,0.031c0.037,0.055,0.077,0.105,0.123,0.15  c0.005,0.006,0.009,0.012,0.014,0.018c0.02,0.02,0.043,0.035,0.065,0.053c0.014,0.01,0.028,0.023,0.043,0.033  c0.027,0.02,0.054,0.039,0.083,0.057c0.02,0.012,0.04,0.021,0.061,0.031c0.037,0.02,0.074,0.037,0.114,0.053  c0.016,0.006,0.031,0.01,0.047,0.014c0.002,0.002,0.004,0.002,0.007,0.002c0.021,0.008,0.041,0.014,0.062,0.02  c0.076,0.018,0.154,0.029,0.235,0.031c0.002,0,0.003,0,0.004,0c0,0,0,0,0.001,0c0,0,0,0,0.001,0h0.001c0.011,0,0.021,0,0.03-0.002  c0.072-0.002,0.142-0.01,0.21-0.027l14.771-3.553c0.025-0.006,0.047-0.018,0.07-0.023c0.038-0.014,0.077-0.023,0.112-0.041  c0.03-0.014,0.057-0.029,0.085-0.045c0.03-0.018,0.061-0.033,0.089-0.053c0.028-0.021,0.053-0.045,0.078-0.066  c0.024-0.021,0.05-0.041,0.072-0.064c0.023-0.025,0.042-0.051,0.062-0.076c0.021-0.027,0.043-0.053,0.061-0.082  c0.018-0.027,0.031-0.057,0.046-0.084c0.016-0.031,0.032-0.061,0.045-0.094c0.013-0.031,0.021-0.064,0.03-0.098  c0.009-0.031,0.02-0.062,0.024-0.094c0.008-0.039,0.01-0.08,0.013-0.121c0.001-0.023,0.007-0.047,0.007-0.072l-0.099-17.232  l10.247,14.906c0,0,0.001,0,0.001,0.002l0.014,0.02c0.007,0.01,0.018,0.018,0.024,0.027c0.037,0.049,0.078,0.096,0.124,0.139  c0.018,0.016,0.034,0.033,0.053,0.047c0.011,0.008,0.021,0.018,0.032,0.025c0.032,0.025,0.067,0.047,0.104,0.066  c0.022,0.014,0.044,0.027,0.067,0.037c0.028,0.014,0.058,0.025,0.087,0.037c0.018,0.006,0.036,0.012,0.054,0.018  c0.009,0.002,0.017,0.006,0.025,0.008c0.017,0.006,0.031,0.012,0.048,0.016c0.071,0.018,0.145,0.027,0.22,0.027  c0.004,0.002,0.009,0.002,0.014,0.002c0,0,0,0,0.001,0c0,0,0,0,0.001,0s0.001,0,0.001,0c0.002,0,0.003-0.002,0.005-0.002  c0.075,0,0.149-0.01,0.222-0.025c0.005-0.002,0.009-0.002,0.015-0.002l14.572-3.506c0.021-0.004,0.041-0.016,0.062-0.021  c0.039-0.012,0.077-0.023,0.114-0.039c0.027-0.014,0.054-0.027,0.08-0.043c0.031-0.016,0.062-0.033,0.091-0.055  c0.027-0.018,0.051-0.037,0.075-0.059c0.026-0.021,0.052-0.043,0.075-0.068c0.022-0.021,0.041-0.045,0.062-0.07  c0.021-0.027,0.043-0.055,0.062-0.084c0.018-0.025,0.03-0.051,0.046-0.076c0.017-0.033,0.032-0.064,0.046-0.096  c0.013-0.031,0.021-0.061,0.031-0.09c0.01-0.033,0.02-0.064,0.026-0.098c0.007-0.035,0.011-0.07,0.015-0.105  c0.001-0.02,0.008-0.039,0.008-0.061l1.399-34.644l5.87-1.235c0.003-0.001,0.005-0.002,0.007-0.002  c0.02-0.005,0.038-0.014,0.057-0.019c0.02-0.005,0.037-0.012,0.056-0.018c0.016-0.006,0.031-0.009,0.047-0.015  c0.017-0.006,0.032-0.012,0.049-0.02c0.021-0.01,0.041-0.023,0.062-0.034c0.044-0.024,0.087-0.049,0.127-0.078  c0.02-0.014,0.036-0.029,0.055-0.045c0.006-0.005,0.013-0.007,0.02-0.013c0.005-0.004,0.006-0.011,0.011-0.015  c0.028-0.026,0.055-0.053,0.078-0.081c0.009-0.01,0.02-0.018,0.028-0.027c0.01-0.013,0.017-0.027,0.026-0.04  c0.021-0.03,0.041-0.062,0.061-0.094c0.012-0.021,0.025-0.041,0.036-0.063c0.004-0.009,0.007-0.018,0.01-0.025  c0.014-0.029,0.025-0.061,0.036-0.092s0.021-0.062,0.028-0.094c0.008-0.033,0.013-0.065,0.018-0.1  c0.003-0.024,0.008-0.05,0.01-0.075C86.985,47.8,86.985,47.792,86.985,47.783z M66.993,28.086l9.832,10.999L58.587,24.44  L49.33,13.654L66.993,28.086z M15.324,37.612L40.931,7.047l15.568,18.141L28.194,58.181L15.324,37.612z M23.62,70.347l-0.917-17.035  l4.479,7.16c0.001,0,0.001,0.002,0.002,0.002l0,0c0.006,0.012,0.016,0.02,0.023,0.029c0.034,0.051,0.073,0.098,0.116,0.141  c0.017,0.018,0.031,0.035,0.048,0.051c0.006,0.006,0.01,0.012,0.016,0.018c0.004,0.004,0.009,0.004,0.014,0.008  c0.02,0.016,0.042,0.027,0.062,0.041c0.063,0.045,0.13,0.084,0.201,0.113c0.017,0.006,0.031,0.02,0.047,0.025  c0.013,0.006,0.027,0.004,0.041,0.008c0.099,0.031,0.2,0.053,0.303,0.053c0.002,0,0.003,0.002,0.005,0.002c0,0,0,0,0.001,0  c0,0,0,0,0.001,0c0.002,0,0.004-0.002,0.006-0.002c0.068,0,0.137-0.008,0.207-0.021h0.002c0,0,0.001,0,0.001,0l6.042-1.271  l0.977,30.811L23.62,70.347z M62.303,84.837l-10.15-14.764l-0.013-2.23l10.459-2.305L62.303,84.837z M79.08,48.131  c-0.035,0.007-0.068,0.021-0.103,0.033c-0.02,0.007-0.042,0.011-0.062,0.019c-0.046,0.019-0.089,0.041-0.131,0.065  c-0.016,0.009-0.031,0.016-0.046,0.025c-0.041,0.025-0.078,0.055-0.114,0.086c-0.016,0.013-0.031,0.024-0.045,0.039  c-0.031,0.029-0.059,0.061-0.085,0.093c-0.017,0.021-0.034,0.04-0.049,0.062c-0.021,0.029-0.038,0.062-0.056,0.094  c-0.016,0.027-0.03,0.054-0.044,0.083c-0.014,0.031-0.023,0.064-0.034,0.097c-0.011,0.031-0.021,0.062-0.028,0.094  c-0.008,0.037-0.011,0.073-0.016,0.11c-0.003,0.024-0.009,0.048-0.01,0.072l-1.4,34.668l-12.513,3.01l0.344-22.52  c0-0.004-0.001-0.01-0.001-0.014c0-0.035-0.005-0.068-0.009-0.102c-0.004-0.037-0.005-0.074-0.013-0.109c0-0.006,0-0.01-0.002-0.014  c-0.005-0.023-0.015-0.045-0.021-0.066c-0.012-0.039-0.022-0.08-0.038-0.117c-0.013-0.029-0.028-0.055-0.043-0.082  c-0.018-0.031-0.033-0.064-0.054-0.094c-0.018-0.025-0.039-0.049-0.06-0.074c-0.022-0.027-0.044-0.055-0.068-0.08  c-0.021-0.021-0.046-0.039-0.069-0.059c-0.028-0.023-0.056-0.047-0.086-0.066c-0.025-0.016-0.051-0.029-0.078-0.045  c-0.032-0.018-0.063-0.035-0.098-0.049c-0.03-0.014-0.062-0.021-0.096-0.031c-0.03-0.01-0.061-0.021-0.093-0.027  c-0.041-0.008-0.083-0.012-0.125-0.014c-0.021-0.002-0.044-0.008-0.066-0.008c-0.004,0-0.008,0-0.013,0  c-0.036,0-0.073,0.006-0.109,0.01c-0.033,0.004-0.067,0.006-0.1,0.012c-0.006,0-0.012,0-0.017,0.002l-12.545,2.766  c-0.001,0-0.003,0-0.004,0l-0.007,0.002c-0.018,0.004-0.033,0.012-0.052,0.018c-0.048,0.012-0.096,0.025-0.141,0.047  c-0.028,0.012-0.054,0.027-0.08,0.043c-0.032,0.018-0.064,0.033-0.095,0.055c-0.028,0.02-0.053,0.043-0.079,0.064  c-0.024,0.021-0.051,0.041-0.073,0.064s-0.04,0.049-0.061,0.074c-0.022,0.027-0.045,0.053-0.064,0.082  c-0.017,0.025-0.027,0.053-0.042,0.078c-0.018,0.033-0.036,0.064-0.05,0.098c-0.013,0.031-0.021,0.064-0.029,0.098  c-0.01,0.031-0.021,0.062-0.027,0.096c-0.01,0.045-0.011,0.092-0.014,0.139c-0.001,0.021-0.006,0.041-0.006,0.062v0.008v0.002  l0.02,3.377v0.002l0.112,19.775l-12.736,3.062l-1.105-34.879c-0.001-0.033-0.008-0.062-0.012-0.094  c-0.004-0.029-0.004-0.059-0.01-0.088c0-0.004-0.002-0.006-0.003-0.01c-0.011-0.051-0.027-0.096-0.045-0.143  c-0.007-0.018-0.011-0.035-0.019-0.053c-0.02-0.045-0.045-0.086-0.07-0.127c-0.011-0.016-0.019-0.035-0.029-0.051  c-0.022-0.031-0.051-0.061-0.077-0.092c-0.019-0.02-0.034-0.041-0.054-0.061c-0.019-0.018-0.04-0.031-0.06-0.047  c-0.033-0.027-0.064-0.055-0.1-0.078c-0.008-0.004-0.017-0.008-0.024-0.012c-0.108-0.064-0.227-0.111-0.354-0.133  c-0.002,0-0.005,0-0.008-0.002c-0.063-0.01-0.127-0.016-0.193-0.014c-0.003,0-0.007-0.002-0.011-0.002  c-0.03,0.002-0.058,0.008-0.086,0.012c-0.031,0.004-0.062,0.004-0.094,0.01l-4.269,0.898l27.161-31.659L83.599,47.18L79.08,48.131z"/>
  </g>
</svg>
