<?xml version="1.0" encoding="utf-8"?>

<svg version="1.1" id="Calque_1" xmlns="http://www.w3.org/2000/svg" xmlns:xlink="http://www.w3.org/1999/xlink" x="0px" y="0px"
  viewBox="23 17 56 69" style="enable-background:new 0 0 100 100;"
  xml:space="preserve">
  <style type="text/css">
  	.st0{fill:#FFFFFF;}
  </style>

  <g>
  <path class="st0" d="M78.26,39.928c-0.183-0.242-0.442-0.381-0.716-0.445c-0.229-0.354-0.486-0.675-0.766-0.929L59.349,22.73  c-1.143-1.036-3.054-1.194-4.352-0.357l-12.751,8.23c-0.398,0.257-0.758,0.617-1.067,1.029c-0.32,0.118-0.624,0.271-0.887,0.483  L23.535,45.621c-1.099,0.886-1.933,2.619-1.939,4.03l-0.102,22.322c-0.001,0.247,0.036,0.486,0.09,0.721  c-0.132,0.37-0.111,0.79,0.132,1.135c0.198,0.281,0.491,0.449,0.805,0.505c0.529,0.516,1.216,0.872,1.977,0.94l37.142,3.35  c0.094,0.008,0.187,0.013,0.279,0.013c0.774,0,1.463-0.293,1.985-0.766c0.216-0.05,0.425-0.136,0.595-0.302l12.358-12.079  c0.269-0.262,0.515-0.591,0.735-0.952c0.487-0.134,0.868-0.545,0.918-1.078c0.024-0.257-0.051-0.491-0.166-0.702  c0.106-0.416,0.171-0.827,0.171-1.208V42.477c0-0.371-0.062-0.769-0.167-1.17C78.592,40.885,78.574,40.34,78.26,39.928z   M76.015,61.551c0,0.123-0.029,0.269-0.058,0.414L64.875,60.92v-7.991c0-0.364-0.056-0.753-0.153-1.146l11.293-8.58V61.551z   M64.875,63.432l9.587,0.903l-9.587,9.37V63.432z M42.667,34.418c0-0.149,0.036-0.318,0.093-0.492  c0.129,0.038,0.248,0.093,0.335,0.172l18.296,16.61c0.506,0.458,0.984,1.538,0.984,2.221v7.755l-19.708-1.857V34.418z   M56.353,24.474c0.354-0.227,1.004-0.174,1.315,0.108l17.43,15.823c0.062,0.057,0.12,0.145,0.181,0.219l-11.654,8.854  c-0.174-0.229-0.356-0.443-0.552-0.621l-18.296-16.61c-0.067-0.061-0.146-0.106-0.218-0.161L56.353,24.474z M25.104,47.567  l15.063-12.14v23.889L24,70.694l0.096-21.031C24.099,49.001,24.589,47.983,25.104,47.567z M61.918,76.138l-36.619-3.3L41.76,61.252  l20.615,1.943v12.471C62.375,75.948,62.191,76.138,61.918,76.138z"/>
  </g>
</svg>
