<?xml version="1.0" encoding="utf-8"?>
<!-- Generator: Adobe Illustrator 21.0.2, SVG Export Plug-In . SVG Version: 6.00 Build 0)  -->
<!DOCTYPE svg PUBLIC "-//W3C//DTD SVG 1.1//EN" "http://www.w3.org/Graphics/SVG/1.1/DTD/svg11.dtd">
<svg version="1.1" id="Calque_1" xmlns="http://www.w3.org/2000/svg" xmlns:xlink="http://www.w3.org/1999/xlink" x="0px" y="0px"
	 viewBox="0 0 26 31" style="enable-background:new 0 0 26 31;" xml:space="preserve">
<style type="text/css">
	.st0{fill:#FFFFFF;}
</style>
<g>
	<path class="st0" d="M5.4,25.4c-0.3,0-0.6-0.1-0.9-0.3c-0.5-0.3-0.8-0.8-0.8-1.4l0-2.8c-1.6-1.6-2.4-3.7-2.4-5.7
		c0-5.2,5.2-9.3,11.5-9.3c0,0,0,0,0,0l0,0.6l0,0.1l0-0.7c6.3,0,11.5,4.2,11.5,9.3c0,2.1-0.9,4.1-2.4,5.7l0,2.8
		c0,0.6-0.3,1.1-0.8,1.4c-0.5,0.3-1.1,0.3-1.6,0.1l-2.6-1.3c-1.3,0.4-2.6,0.6-4,0.6c0,0,0,0,0,0c-1.4,0-2.7-0.2-4-0.6l-2.6,1.3
		C5.9,25.3,5.7,25.4,5.4,25.4z M12.8,7.2c-5.6,0-10.1,3.6-10.1,8c0,1.8,0.8,3.5,2.2,4.9c0.1,0.1,0.2,0.3,0.2,0.5l0,3.1
		c0,0.1,0.1,0.2,0.1,0.2s0.2,0.1,0.3,0l2.9-1.4c0.2-0.1,0.3-0.1,0.5,0c1.2,0.4,2.5,0.6,3.8,0.6l0,0c1.3,0,2.6-0.2,3.8-0.6
		c0.2-0.1,0.4,0,0.5,0l2.9,1.4c0.1,0.1,0.2,0,0.3,0c0.1,0,0.1-0.1,0.1-0.2l0-3.1c0-0.2,0.1-0.4,0.2-0.5c1.4-1.4,2.2-3.1,2.2-4.9
		C22.9,10.8,18.4,7.2,12.8,7.2C12.8,7.2,12.8,7.2,12.8,7.2z"/>
</g>
<g>
	<path class="st0" d="M12.8,11.7c0.8,0,1.3,0.6,1.3,1.3s-0.6,1.3-1.3,1.3c-0.8,0-1.3-0.5-1.3-1.3S12,11.7,12.8,11.7z M13.9,23
		c0,0.5-0.3,0.9-0.9,0.9h-0.5c-0.6,0-0.9-0.4-0.9-0.9v-6.3c0-0.5,0.3-0.9,0.9-0.9h0.5c0.6,0,0.9,0.4,0.9,0.9V23z"/>
</g>
</svg>
