<?xml version="1.0" encoding="utf-8"?>
<!-- Generator: Adobe Illustrator 21.0.2, SVG Export Plug-In . SVG Version: 6.00 Build 0)  -->
<!DOCTYPE svg PUBLIC "-//W3C//DTD SVG 1.1//EN" "http://www.w3.org/Graphics/SVG/1.1/DTD/svg11.dtd">
<svg version="1.1" id="Calque_1" xmlns="http://www.w3.org/2000/svg" xmlns:xlink="http://www.w3.org/1999/xlink" x="0px" y="0px"
	 viewBox="0 0 26 31" style="enable-background:new 0 0 26 31;" xml:space="preserve">
<style type="text/css">
	.st0{fill:#FFFFFF;}
</style>
<g>
	<path class="st0" d="M4.3,27.1c-0.1,0-0.3,0-0.4-0.1c-0.2-0.1-0.4-0.4-0.4-0.6l-0.1-5.2c-1.6-1.9-2.4-4.2-2.4-6.6
		c0-6,5.3-10.8,11.8-10.8s11.8,4.9,11.8,10.8s-5.3,10.8-11.8,10.8c-1.4,0-2.8-0.2-4.1-0.7L4.7,27C4.6,27.1,4.4,27.1,4.3,27.1z
		 M12.8,5.2c-5.7,0-10.3,4.2-10.3,9.4c0,2.1,0.8,4.2,2.2,5.8C4.9,20.6,5,20.8,5,20.9L5,25.2l3.3-1.8c0.2-0.1,0.4-0.1,0.6,0
		c1.2,0.5,2.6,0.7,3.9,0.7c5.7,0,10.3-4.2,10.3-9.4S18.5,5.2,12.8,5.2z"/>
</g>
<g>
	<path class="st0" d="M12.8,6.7c0.9,0,1.5,0.6,1.5,1.5s-0.7,1.5-1.5,1.5c-0.9,0-1.5-0.6-1.5-1.5S11.9,6.7,12.8,6.7z M14.1,21.4
		c0,0.6-0.3,1-1,1h-0.6c-0.6,0-1-0.5-1-1v-9c0-0.6,0.4-1,1-1h0.6c0.6,0,1,0.5,1,1V21.4z"/>
</g>
</svg>
