<?xml version="1.0" encoding="utf-8"?>
<!-- Generator: Adobe Illustrator 21.0.2, SVG Export Plug-In . SVG Version: 6.00 Build 0)  -->
<!DOCTYPE svg PUBLIC "-//W3C//DTD SVG 1.1//EN" "http://www.w3.org/Graphics/SVG/1.1/DTD/svg11.dtd">
<svg version="1.1" id="Calque_1" xmlns="http://www.w3.org/2000/svg" xmlns:xlink="http://www.w3.org/1999/xlink" x="0px" y="0px"
	 viewBox="0 0 26 31" style="enable-background:new 0 0 26 31;" xml:space="preserve">
<style type="text/css">
	.st0{fill:#FFFFFF;}
</style>
<g>
	<path class="st0" d="M3.8,25.3c-0.2,0-0.4-0.1-0.6-0.3c-0.2-0.2-0.2-0.5,0-0.8c1.1-1.7,0.7-2.9,0.5-3.1c-1.6-1.6-2.5-3.7-2.5-5.8
		c0-5.2,5.2-9.4,11.5-9.4s11.5,4.2,11.5,9.4s-5.2,9.4-11.5,9.4c-1.4,0-2.8-0.2-4.1-0.6L4,25.3C3.9,25.3,3.9,25.3,3.8,25.3z
		 M12.8,7.3c-5.6,0-10.1,3.6-10.1,8c0,1.8,0.8,3.5,2.2,4.9c0,0,0.1,0.1,0.1,0.1c0,0.1,0.8,1.3,0.1,3.2l3.4-0.9c0.1,0,0.3,0,0.4,0
		c1.2,0.4,2.5,0.6,3.9,0.6c5.6,0,10.1-3.6,10.1-8S18.4,7.3,12.8,7.3z"/>
</g>
<g>
	<path class="st0" d="M12.8,9.2c0.8,0,1.4,0.6,1.4,1.4s-0.6,1.3-1.4,1.3c-0.8,0-1.3-0.5-1.3-1.3S12,9.2,12.8,9.2z M13.9,20.9
		c0,0.5-0.3,0.9-0.9,0.9h-0.5c-0.6,0-0.9-0.4-0.9-0.9v-6.5c0-0.5,0.3-0.9,0.9-0.9h0.5c0.6,0,0.9,0.4,0.9,0.9V20.9z"/>
</g>
</svg>
