<?xml version="1.0" encoding="utf-8"?>
<!-- Generator: Adobe Illustrator 21.0.2, SVG Export Plug-In . SVG Version: 6.00 Build 0)  -->
<!DOCTYPE svg PUBLIC "-//W3C//DTD SVG 1.1//EN" "http://www.w3.org/Graphics/SVG/1.1/DTD/svg11.dtd">
<svg version="1.1" id="Calque_1" xmlns="http://www.w3.org/2000/svg" xmlns:xlink="http://www.w3.org/1999/xlink" x="0px" y="0px"
	 viewBox="0 0 26 31" style="enable-background:new 0 0 26 31;" xml:space="preserve">
<style type="text/css">
	.st0{fill:#FFFFFF;}
</style>
<g>
	<g>
		<path class="st0" d="M9,20.4c-0.2-1-0.1-1.9,0.1-2.7c0.3-0.8,0.6-1.5,1.1-2.2c0.5-0.6,1-1.2,1.6-1.7c0.6-0.5,1.1-1,1.7-1.5
			c0.5-0.5,1-1,1.3-1.5c0.4-0.5,0.5-1,0.5-1.6c0-1-0.3-1.7-1-2.2c-0.6-0.5-1.4-0.7-2.4-0.7C11,6.4,10.1,6.6,9.4,7
			C8.7,7.4,8,7.9,7.3,8.5L3.5,5.1c1.1-1.2,2.4-2.2,3.9-3c1.5-0.8,3.1-1.1,5-1.1c1.3,0,2.5,0.2,3.7,0.5c1.1,0.3,2.1,0.8,3,1.4
			c0.8,0.6,1.5,1.4,2,2.3c0.5,0.9,0.7,2,0.7,3.2c0,1-0.2,1.9-0.5,2.6c-0.4,0.7-0.8,1.4-1.4,2c-0.5,0.6-1.1,1.2-1.7,1.7
			c-0.6,0.5-1.2,1.1-1.7,1.6c-0.5,0.6-0.9,1.2-1.2,1.8c-0.3,0.7-0.4,1.4-0.3,2.3H9z"/>
	</g>
	<polygon class="st0" points="15.8,23.1 11.9,30 8,23.1 	"/>
</g>
</svg>
