<?xml version="1.0" encoding="utf-8"?>
<!-- Generator: Adobe Illustrator 21.0.2, SVG Export Plug-In . SVG Version: 6.00 Build 0)  -->
<!DOCTYPE svg PUBLIC "-//W3C//DTD SVG 1.1//EN" "http://www.w3.org/Graphics/SVG/1.1/DTD/svg11.dtd">
<svg version="1.1" id="Calque_1" xmlns="http://www.w3.org/2000/svg" xmlns:xlink="http://www.w3.org/1999/xlink" x="0px" y="0px"
	 viewBox="0 0 26 31" style="enable-background:new 0 0 26 31;" xml:space="preserve">
<style type="text/css">
	.st0{fill:#FFFFFF;}
</style>
<g>
	<path class="st0" d="M12.8,13.7c0.7,0,1.2,0.5,1.2,1.2c0,0.7-0.5,1.2-1.2,1.2c-0.7,0-1.2-0.5-1.2-1.2
		C11.6,14.2,12.1,13.7,12.8,13.7z M13.8,23.9c0,0.4-0.3,0.8-0.8,0.8h-0.5c-0.5,0-0.8-0.4-0.8-0.8v-5.7c0-0.4,0.3-0.8,0.8-0.8H13
		c0.5,0,0.8,0.4,0.8,0.8V23.9z"/>
</g>
<g>
	<path class="st0" d="M12.9,26.3C12.9,26.3,12.9,26.3,12.9,26.3C12.9,26.3,12.8,26.3,12.9,26.3c-0.1,0-0.1,0-0.2,0
		c-0.2,0-0.4-0.1-0.5-0.2c-1-1-9.7-9.6-10.6-12.2C1,12,1.2,10.1,2.2,8.7c1-1.4,2.7-2.2,4.7-2.2c2.8,0,5,2.3,5.9,3.4
		c0.9-1.1,3.1-3.4,5.9-3.4c1.9,0,3.6,0.8,4.7,2.2c1,1.4,1.2,3.3,0.6,5.2c-0.9,2.6-9.6,11.2-10.6,12.2C13.3,26.2,13.1,26.3,12.9,26.3
		z M6.9,7.9c-1.5,0-2.7,0.6-3.5,1.6c-0.7,1-0.9,2.4-0.4,3.9c0.6,1.7,6,7.5,9.8,11.2c3.8-3.8,9.2-9.5,9.8-11.2
		c0.5-1.5,0.4-2.8-0.4-3.9c-0.7-1-2-1.6-3.5-1.6c-2.9,0-5.2,3.3-5.2,3.3c-0.1,0.2-0.3,0.3-0.6,0.3c-0.1,0-0.1,0-0.2,0
		c-0.1,0-0.1,0-0.2,0c-0.2,0-0.4-0.1-0.6-0.3C12,11.2,9.7,7.9,6.9,7.9z"/>
</g>
</svg>
