<?xml version="1.0" encoding="utf-8"?>
<!-- Generator: Adobe Illustrator 23.0.3, SVG Export Plug-In . SVG Version: 6.00 Build 0)  -->
<svg version="1.1" id="Calque_1" xmlns="http://www.w3.org/2000/svg" xmlns:xlink="http://www.w3.org/1999/xlink" x="0px" y="0px"
	 viewBox="0 0 500 500" style="enable-background:new 0 0 500 500;" xml:space="preserve">
<style type="text/css">
	.st0{fill:#FFFFFF;}
</style>
<g>
	<path class="st0" d="M219.66,477.86l-41.26-9.88l11.65-45.21h-72.38v-39.86c5.06,0.03,11.73,0.02,19.3,0
		c21.8-0.07,51.66-0.15,77.38,0.93c5.6,0.25,10.83,2.83,14.41,7.13c3.59,4.3,5.2,9.91,4.43,15.45
		C231.37,419.57,220.23,474.85,219.66,477.86"/>
	<g>
		<path class="st0" d="M327.56,123.34l-59.69,16.52c0,0,0.02-6.18,0-8.84H227.9c0.05,9.69,0.11,26.85,0.17,45.54
			c-6.73-37.09-34.15-53.22-34.15-53.22c37.41-30.02,24.44-94.51-36.9-110.72c0,0-12.6,40.06-12.61,40.05
			c2.26,0.88,28.04,6.66,28.04,27.69c0,26.2-27.86,29.44-61.96,29.44c-1.43,0-82.48-0.04-82.48-0.04v39.66
			c81.17,0,123.6,3.6,134.23,5.71c13.63,2.7,30.19,11.81,30.19,29.68c0,31.89-32.9,31.87-64.16,32.95
			C120.57,218,28,217.13,28,217.13v39.43c0,0,25.32-0.07,42.69,0c60.89,0.27,109.27-0.7,131.83-12.67
			c13.27-7.04,22.06-19.01,25.64-34.61c0.05,17.58,0.08,33.03,0.08,40.68h39.62c0-9.45,0-55.86,0-57.05
			c0-15.83,24.85-17.23,70.38-29.13L327.56,123.34z"/>
		<path class="st0" d="M46.53,477.86c-0.3-6.44-35.66-103.11-6.1-151.56c13.22-21.67,36.85-38.03,63.79-50.34
			c29.85-13.62,64.57-20.74,103.19-21.13l0.41,39.74c-60.37,0.62-109.14,23.21-132.3,57.7c-16.98,25.29-4.7,63.04,1.03,84.73
			c3.85,14.59,9.22,30.95,9.68,40.86H46.53z"/>
		<polygon class="st0" points="227.98,477.86 227.98,261.18 267.72,261.05 267.72,477.86 		"/>
		<path class="st0" d="M431.75,477.86l-38.34-7.83c2.36-8.66,7.66-19.87,13.79-32.87c6.77-14.34,33.76-52.98,21.82-67.81
			c-10.9-13.53-57.29-12.78-74.64-14.44c-32.62-3.12-53.26-5.38-65.82-12.67c-17.65-10.22-27.19-27.58-24.9-45.35
			c2.35-18.17,16.7-33,37.46-38.71c21.83-5.99,72.07-3.66,130.6-0.25c14.15,0.83,31.84,1.55,38.27,1.63v39.73
			c-7.29-0.1-25.37-0.81-40.58-1.69c-35.11-2.04-100.46-5.86-117.76-1.12c-6.17,1.7-8.45,4.43-8.58,5.49
			c-0.11,0.84,1.08,3.36,5.4,5.87c6.01,3.33,32.29,5.84,49.68,7.49c51.95,4.96,87.15,9.72,102.5,29.93
			c15.08,19.85,6.62,48,3.84,57.24c-5.25,17.48-13.81,35.62-21.37,51.61C438.24,464.49,433.2,472.57,431.75,477.86"/>
		<path class="st0" d="M469.74,248.94c0-23.62,0.16-97.56,0-117.92h-39.3c0.08,10.88-0.08,37.44-0.01,63.04
			c0.01,2.75-0.84,5.43-2.42,7.67c-0.02,0.02-0.03,0.05-0.05,0.07c-1.43,2.02-3.3,3.68-5.49,4.8c-0.02,0.01-0.04,0.02-0.07,0.03
			c-5.72,2.93-16.46,7.59-25.59,9.02c-5.37,0.84-10.28-3.2-10.64-8.63c-1.06-15.73-2.35-72.74-2.38-76.01h-39.3
			c0.03,2.77,0.08,7.98,0,13.82c-0.37,25,3.99,78.26,6.82,85.05c4.24,10.23,11.74,17.05,22.27,20.28c3.79,1.15,8.21,1.65,12.95,1.65
			c20.61,0,44.21-13.4,44.21-13.4c0,1.19,0,9.51,0,10.52H469.74z"/>
	</g>
</g>
</svg>
