<?xml version="1.0" encoding="utf-8"?>
<!-- Generator: Adobe Illustrator 21.0.2, SVG Export Plug-In . SVG Version: 6.00 Build 0)  -->
<!DOCTYPE svg PUBLIC "-//W3C//DTD SVG 1.1//EN" "http://www.w3.org/Graphics/SVG/1.1/DTD/svg11.dtd">
<svg version="1.1" id="Calque_1" xmlns="http://www.w3.org/2000/svg" xmlns:xlink="http://www.w3.org/1999/xlink" x="0px" y="0px"
	 viewBox="0 0 26 31" style="enable-background:new 0 0 26 31;" xml:space="preserve">
<style type="text/css">
	.st0{fill:#FFFFFF;}
</style>
<g>
	<path class="st0" d="M12.8,26C12.8,26,12.8,26,12.8,26c-6.4,0-11.6-4.2-11.6-9.4c0-2.1,0.9-4.1,2.4-5.7l0-2.8C3.7,7.6,4,7,4.5,6.7
		C5,6.4,5.6,6.4,6.1,6.7l2.7,1.3c1.3-0.4,2.6-0.6,4-0.6c0,0,0,0,0,0l0,0.6l0,0.1l0-0.7c1.4,0,2.7,0.2,4,0.6l2.7-1.3
		c0.5-0.2,1.1-0.2,1.6,0.1c0.5,0.3,0.8,0.8,0.8,1.4l0,2.8c1.6,1.6,2.4,3.7,2.4,5.7C24.3,21.8,19.2,26,12.8,26z M5.4,7.9
		c-0.1,0-0.1,0-0.2,0C5.2,8,5.1,8,5.1,8.2l0,3.1c0,0.2-0.1,0.4-0.2,0.5c-1.4,1.4-2.2,3.1-2.2,4.9c0,4.4,4.5,8,10.1,8l0,0
		c5.6,0,10.1-3.6,10.1-8c0-1.8-0.8-3.5-2.2-4.9c-0.1-0.1-0.2-0.3-0.2-0.5l0-3.1c0-0.1-0.1-0.2-0.1-0.2c-0.1,0-0.2-0.1-0.3,0
		l-2.9,1.4c-0.2,0.1-0.3,0.1-0.5,0c-1.2-0.4-2.5-0.6-3.8-0.6c0,0,0,0,0,0c0,0,0,0,0,0c-1.3,0-2.6,0.2-3.9,0.6c-0.2,0.1-0.4,0-0.5,0
		L5.5,7.9C5.5,7.9,5.4,7.9,5.4,7.9z"/>
</g>
<g>
	<path class="st0" d="M9.3,15.7c0.8,0,1.3,0.6,1.3,1.3s-0.6,1.3-1.3,1.3c-0.8,0-1.3-0.5-1.3-1.3S8.6,15.7,9.3,15.7z M16.3,15.7
		c0.8,0,1.3,0.6,1.3,1.3s-0.6,1.3-1.3,1.3c-0.8,0-1.3-0.5-1.3-1.3S15.5,15.7,16.3,15.7z M13.9,21.9c0,0.5-0.3,0.9-0.9,0.9h-0.5
		c-0.6,0-0.9-0.4-0.9-0.9v-1.1c0-0.5,0.3-0.9,0.9-0.9h0.5c0.6,0,0.9,0.4,0.9,0.9V21.9z"/>
</g>
</svg>
