<svg id="Calque_1" data-name="Calque 1" xmlns="http://www.w3.org/2000/svg" viewBox="0 0 16.42 27.78"><defs><style>.cls-1{fill:#fff;}</style></defs><title>geoloc_3</title><path class="cls-1" d="M13.62,1.74c-4.54,0-8.21,4.35-8.21,8.62,0,3.48,5.46,11.63,7.48,15.35a.82.82,0,0,0,1.46,0c2-3.72,7.48-11.87,7.48-15.35C21.83,6.09,18.15,1.74,13.62,1.74Zm0,2.09A1.52,1.52,0,0,1,15.18,5.3a1.56,1.56,0,0,1-3.12,0A1.52,1.52,0,0,1,13.62,3.83Zm3.1,9.76a.51.51,0,0,1-.53.49h-.1a.5.5,0,0,1-.34-.12V19.4a.52.52,0,0,1-.52.5H14.7a.51.51,0,0,1-.52-.5V13.72a1.89,1.89,0,0,1-1.08,0V19.4a.52.52,0,0,1-.53.5h-.52a.52.52,0,0,1-.53-.5V13.94a.51.51,0,0,1-.37.14h-.1a.51.51,0,0,1-.53-.49V7.45a.51.51,0,0,1,.53-.5s1.8.24,2.57.24S16.19,7,16.19,7a.51.51,0,0,1,.53.5Z" transform="translate(-5.41 -1.74)"/><ellipse class="cls-1" cx="8.21" cy="26.88" rx="6.25" ry="0.9"/></svg>