<svg id="Calque_1" data-name="Calque 1" xmlns="http://www.w3.org/2000/svg" viewBox="0 0 13.27 26.49"><defs><style>.cls-1{fill:#fff;}</style></defs><title>geoloc_2</title><path class="cls-1" d="M12.82,9.14a3.66,3.66,0,1,1,3.65-3.65A3.66,3.66,0,0,1,12.82,9.14Zm0-6.38a2.73,2.73,0,1,0,2.72,2.73A2.73,2.73,0,0,0,12.82,2.76Z" transform="translate(-6.18 -1.83)"/><path class="cls-1" d="M12.82,25.9a1,1,0,0,1-.85-.51C10.23,22,6.18,13.73,6.18,10.84A2.24,2.24,0,0,1,6.83,9c.66-.47,1.57-.15,2.71.25a9.68,9.68,0,0,0,3.28.74,9.67,9.67,0,0,0,3.27-.74c1.15-.4,2.05-.72,2.71-.25a2.24,2.24,0,0,1,.65,1.86c0,2.89-4,11.14-5.79,14.55A1,1,0,0,1,12.82,25.9ZM7.63,9.68a.48.48,0,0,0-.26.06c-.1.07-.26.3-.26,1.1,0,2.2,2.94,8.74,5.69,14.13a0,0,0,0,0,0,0c2.75-5.39,5.69-11.93,5.69-14.13,0-.8-.16-1-.26-1.1-.27-.19-1.07.09-1.86.37a10.73,10.73,0,0,1-3.58.79,10.73,10.73,0,0,1-3.59-.79A6.43,6.43,0,0,0,7.63,9.68Z" transform="translate(-6.18 -1.83)"/><ellipse class="cls-1" cx="6.69" cy="25.72" rx="5.05" ry="0.77"/></svg>