<?xml version="1.0" encoding="utf-8"?>
<!-- Generator: Adobe Illustrator 22.1.0, SVG Export Plug-In . SVG Version: 6.00 Build 0)  -->
<!DOCTYPE svg PUBLIC "-//W3C//DTD SVG 1.1//EN" "http://www.w3.org/Graphics/SVG/1.1/DTD/svg11.dtd">
<svg version="1.1" id="Calque_1" xmlns="http://www.w3.org/2000/svg" xmlns:xlink="http://www.w3.org/1999/xlink" x="0px" y="0px"
	 viewBox="0 0 26 31" style="enable-background:new 0 0 26 31;" xml:space="preserve">
<style type="text/css">
	.st0{fill:#FFFFFF;}
</style>
<g>
	<path class="st0" d="M24,14.5h-0.2h-1.6h-3.9c-0.4,0-0.8,0.3-0.8,0.8v0.5c0,0.5,0.4,0.8,0.8,0.8h3.9c0,0,0,0,0,0
		c-0.5,4.4-4,7.8-8.3,8.3c0,0,0,0,0,0v-3.9c0-0.4-0.3-0.8-0.8-0.8h-0.5c-0.5,0-0.8,0.4-0.8,0.8v3.9c0,0,0,0,0,0
		c-4.4-0.5-7.8-4-8.3-8.3c0,0,0,0,0,0h3.9c0.4,0,0.8-0.3,0.8-0.8v-0.5c0-0.5-0.4-0.8-0.8-0.8H3.4c0,0,0,0,0,0c0.5-4.4,4-7.8,8.3-8.3
		c0,0,0,0,0,0V10c0,0.4,0.3,0.8,0.8,0.8h0.5c0.5,0,0.8-0.4,0.8-0.8V6.2c0,0,0,0,0,0c3.8,0.4,6.9,3.1,8,6.6c0,0.1,0.1,0.2,0.2,0.2
		l1.4,0c0.2,0-0.1-0.6-0.2-0.9c-1.4-4.1-5-7.1-9.4-7.5V4.3c0-0.4-0.3-0.8-0.8-0.8h-0.5c-0.5,0-0.8,0.4-0.8,0.8v0.2
		c-5.3,0.5-9.5,4.7-10,10H1.6c-0.4,0-0.8,0.3-0.8,0.8v0.5c0,0.5,0.4,0.8,0.8,0.8h0.2c0.5,5.3,4.7,9.5,10,10v0.2
		c0,0.4,0.3,0.8,0.8,0.8h0.5c0.5,0,0.8-0.4,0.8-0.8v-0.2c5.3-0.5,9.5-4.7,10-10H24c0.4,0,0.8-0.3,0.8-0.8v-0.5
		C24.8,14.8,24.4,14.5,24,14.5z"/>
</g>
</svg>
