<?xml version="1.0" encoding="utf-8"?>
<!-- Generator: Adobe Illustrator 21.0.2, SVG Export Plug-In . SVG Version: 6.00 Build 0)  -->
<!DOCTYPE svg PUBLIC "-//W3C//DTD SVG 1.1//EN" "http://www.w3.org/Graphics/SVG/1.1/DTD/svg11.dtd">
<svg
  version="1.1"
  id="Calque_1"
  xmlns="http://www.w3.org/2000/svg"
  xmlns:xlink="http://www.w3.org/1999/xlink"
  x="0px"
  y="0px"
  viewBox="0 0 242.1 84.26"
  style="enable-background:new 0 0 242.1 84.26;"
  xml:space="preserve">
  <style type="text/css">
  	.st0{fill:#FFFFFF;}
  </style>
  <g>
    <path class="st0" d="M121,86.09A14.13,14.13,0,1,1,135,100,13.81,13.81,0,0,1,121,86.09Z" transform="translate(-15.72 -15.72)"/>
    <path class="st0" d="M15.72,68.89V15.72H38.44v50C38.44,76.94,43,82.3,52.8,82.3c9.62,0,17.2-6,17.2-18.14V15.72H92.72V98.24H70V85.3C65.74,93.67,57.37,100,43.8,100,27.71,100,15.72,90.51,15.72,68.89Z" transform="translate(-15.72 -15.72)"/>
    <path class="st0" d="M185.22,60.07c11.07,0,19.86-.12,24-2.3a9.19,9.19,0,0,0,4.67-6.29c0,3.19,0,6,0,7.39h7.2V48.5c0-2.88,4.52-3.13,12.8-5.3l-1.94-7.35-10.86,3s0-1.12,0-1.6H213.8c0,1.76,0,4.88,0,8.28a14.69,14.69,0,0,0-6.21-9.68c6.8-5.46,4.44-17.18-6.71-20.13L198.62,23c.41.16,5.09,1.21,5.09,5,0,4.77-5.06,5.36-11.26,5.36h-15v7.21c14.76,0,22.47.65,24.41,1,2.48.49,5.49,2.14,5.49,5.39,0,5.8-6,5.8-11.67,6-1.4.05-18.23-.11-18.23-.11v7.17Z" transform="translate(-15.72 -15.72)"/>
    <path class="st0" d="M240.28,58.91a8.19,8.19,0,0,0,2.36.3c3.74,0,8-2.44,8-2.44v1.92h7.1c0-4.3,0-17.74,0-21.44h-7.15c0,2,0,6.8,0,11.46a2.37,2.37,0,0,1-.44,1.39v0a2.89,2.89,0,0,1-1,.87h0a17.65,17.65,0,0,1-4.66,1.64,1.7,1.7,0,0,1-1.93-1.57c-.19-2.86-.43-13.23-.43-13.82H235c0,.5,0,1.45,0,2.51-.07,4.54.73,14.23,1.24,15.46A6.16,6.16,0,0,0,240.28,58.91Z" transform="translate(-15.72 -15.72)"/>
    <path class="st0" d="M187.71,98.24c-.36-1.63-1-3.56-1.43-5.36-1-3.94-3.28-10.81-.19-15.41C190.3,71.2,199.17,67.09,210.15,67l-.08-7.22a46,46,0,0,0-18.76,3.84c-4.9,2.24-9.19,5.21-11.6,9.15-4.41,7.24-.86,20.38.57,25.49Z" transform="translate(-15.72 -15.72)"/>
    <path class="st0" d="M204.87,98.24h7.84c.3-1.51.72-3.63,1.1-5.65v5.65H221V71.71a9.35,9.35,0,0,0,3.79,3.94c2.28,1.32,6,1.74,12,2.3,3.16.3,11.59.17,13.57,2.63,2.18,2.7-2.73,9.72-4,12.33a51.54,51.54,0,0,0-2.3,5.33h7.69c.35-.66.74-1.41,1.14-2.25a70.81,70.81,0,0,0,3.89-9.38c.5-1.68,2-6.8-.7-10.41s-9.19-4.54-18.64-5.44c-3.16-.3-7.94-.76-9-1.36-.79-.46-1-.92-1-1.07s.43-.69,1.56-1c3.14-.86,15-.17,21.41.21,2.76.16,6.05.29,7.37.3V60.62c-1.17,0-4.38-.15-6.95-.3-10.65-.62-19.78-1-23.75,0A9.39,9.39,0,0,0,221,65V60.89l-7.23,0V84.36a3.64,3.64,0,0,0-2.48-1.15c-4.67-.19-10.1-.18-14.07-.17h-3.5v7.25h13.15Z" transform="translate(-15.72 -15.72)"/>
  </g>
</svg>
