<svg id="Calque_1" data-name="Calque 1" xmlns="http://www.w3.org/2000/svg" viewBox="0 0 26 31"><defs><style>.cls-1{fill:none;}.cls-2{fill:#fff;}</style></defs><title>distances_e</title><rect class="cls-1" width="26" height="31"/><path class="cls-2" d="M4.14,22.89h0a.94.94,0,0,1-.93-.95L3.33,8.73a.94.94,0,0,1,1.88,0L5.09,22A.94.94,0,0,1,4.14,22.89Z"/><polygon class="cls-2" points="7.02 19.81 4.15 21 1.31 19.76 4.1 26.56 7.02 19.81"/><path class="cls-2" d="M19.86,6.8H6.92a.94.94,0,0,1,0-1.88H19.86a.94.94,0,1,1,0,1.88Z"/><polygon class="cls-2" points="17.7 3 18.91 5.86 17.7 8.71 24.47 5.86 17.7 3"/><path class="cls-2" d="M23.75,27H21a1.05,1.05,0,1,1,0-2.1H22.7V23.18a1.05,1.05,0,0,1,2.1,0v2.77A1.05,1.05,0,0,1,23.75,27Z"/><path class="cls-2" d="M13.9,27H11.13a1.05,1.05,0,0,1-1.05-1.05V23.18a1.05,1.05,0,0,1,2.1,0V24.9H13.9a1.05,1.05,0,1,1,0,2.1Z"/><path class="cls-2" d="M11.13,17.15a1.05,1.05,0,0,1-1.05-1.05V13.33a1.05,1.05,0,0,1,1.05-1.05H13.9a1.05,1.05,0,1,1,0,2.1H12.18V16.1A1.05,1.05,0,0,1,11.13,17.15Z"/><path class="cls-2" d="M23.75,17.15A1.05,1.05,0,0,1,22.7,16.1V14.38H21a1.05,1.05,0,1,1,0-2.1h2.77a1.05,1.05,0,0,1,1.05,1.05V16.1A1.05,1.05,0,0,1,23.75,17.15Z"/></svg>