<svg id="Calque_1" data-name="Calque 1" xmlns="http://www.w3.org/2000/svg" viewBox="0 0 26 31"><defs><style>.cls-1{fill:none;}.cls-2{fill:#fff;}</style></defs><title>distance_f</title><rect class="cls-1" width="26" height="31"/><path class="cls-2" d="M7,24H4a1.06,1.06,0,0,1,0-2.12H7A1.06,1.06,0,0,1,7,24Z"/><path class="cls-2" d="M15.31,24H10.69a1.06,1.06,0,0,1,0-2.12h4.63a1.06,1.06,0,0,1,0,2.12Z"/><path class="cls-2" d="M22,24H19a1.06,1.06,0,0,1,0-2.12H22A1.06,1.06,0,0,1,22,24Z"/><path class="cls-2" d="M23,12.42V7.66l-.34,0H21.08v4.74l.94.4Z"/><path class="cls-2" d="M23,12.42v1.36a.94.94,0,1,1-1.89,0V12.42l-1.92-.82L22,18.4l2.87-6.79Z"/><path class="cls-2" d="M22,14.72a.94.94,0,0,0,.94-.94V12.42l-.94.4-.94-.4v1.36A.94.94,0,0,0,22,14.72Z"/><path class="cls-2" d="M2.91,7.64v4.78l.94.4.94-.4V7.68H3.38A2.56,2.56,0,0,1,2.91,7.64Z"/><path class="cls-2" d="M3.86,14.72a.94.94,0,0,1-.94-.94V12.42L1,11.6,3.86,18.4,6.72,11.6l-1.92.82v1.36A.94.94,0,0,1,3.86,14.72Z"/><path class="cls-2" d="M2.91,12.42v1.36a.94.94,0,1,0,1.89,0V12.42l-.94.4Z"/><rect class="cls-2" x="4.8" y="6" width="16.28" height="1.68"/><path class="cls-2" d="M23,7.66V6l-.34,0H21.08V7.68h1.55Z"/><path class="cls-2" d="M3.38,6a2.56,2.56,0,0,0-.46,0V7.64a2.56,2.56,0,0,0,.46,0H4.8V6Z"/></svg>