<svg xmlns="http://www.w3.org/2000/svg" xmlns:xlink="http://www.w3.org/1999/xlink" version="1.1" style="" xml:space="preserve" width="26" height="31"><rect id="backgroundrect" width="100%" height="100%" x="0" y="0" fill="none" stroke="none"/>
<style type="text/css">
	.st0{fill:#ffaa00;}
</style>

<g class="currentLayer" style=""><title>Layer 1</title><g id="svg_1" class="" fill-opacity="1" fill="#ffaa00" stroke-opacity="1" stroke="#ffaa00">
	<path class="st0" d="M15.2,8.5c0.2,0,0.3,0.1,0.4,0.1c0.7,0.2,1.5,0.3,2.2,0.5c0.4,0.1,0.6,0.4,0.6,0.9c-0.1,1.5-0.1,3.1-0.2,4.6   c-0.1,1.4-0.1,2.8-0.2,4.2c0,0.4-0.2,0.6-0.5,0.8c-0.4,0.2-0.9,0.4-1.3,0.7c-0.1,0.1-0.2,0.2-0.2,0.4c-0.1,1.4-0.1,2.8-0.1,4.2   c0,0.5-0.2,0.8-0.6,1.1c-0.5,0.3-0.9,0.6-1.4,0.9c-0.3,0.2-0.6,0.2-0.9,0.1c-1.2-0.6-2.4-1.1-3.6-1.7c-0.3-0.2-0.5-0.4-0.5-0.7   c0-2-0.1-4-0.1-6c0-0.3-0.1-0.4-0.3-0.5c-0.4-0.1-0.6-0.4-0.6-0.8c-0.1-2.7-0.2-5.3-0.3-8c0-0.7,0.2-0.9,0.9-1   c0.4,0,0.7-0.1,1.1-0.1c-1.1-2.3-0.8-4.2,0.9-5.4c1.6-1.1,3.6-0.8,4.9,0.6C16.5,4.4,17,6.6,15.2,8.5z M10.9,9.2   c-0.2-0.2-0.5-0.5-0.8-0.5C9.5,8.7,9,8.8,8.4,8.9c0,0.1,0,0.2,0,0.3c0.1,2.5,0.2,5,0.2,7.5c0,0.4,0.2,0.5,0.6,0.6   c0-0.2-0.1-3.5-0.2-5.9c0-0.1,0.3-0.1,0.3,0c0.1,2.8,0.3,10.7,0.3,12.6c0,0.3,0.1,0.5,0.4,0.6c1.1,0.5,2.3,1.1,3.5,1.6   c0-0.2,0.1-0.3,0.1-0.5c0-1.5,0.1-10,0.2-13.6c0-0.5,0-0.5,0.5-0.3c0,0.4-0.1,5.5-0.1,7c0,0.1,0.1,0.3,0.2,0.3   c0.4,0.1,0.8,0.2,1.2,0.4c0.4,0.1,0.4,0.1,0.4-0.3c0-0.8,0-1.6,0-2.4c0-2.1,0.1-4.2,0.1-6.2c0-0.3,0.1-0.4,0.4-0.5   c0.3-0.1,0.7-0.2,1-0.3l-1.1-0.4c-0.3-0.1-0.7-0.1-1.1-0.1C12.5,10,11.1,9.8,10.9,9.2z M12.6,8.7c1.4,0,3-1.1,3-3c0-1.6-1.3-3-3-3   c-1.7,0-3,1.3-3,3C9.6,7.4,11,8.7,12.6,8.7z" id="svg_2" fill="#ffaa00" stroke="#ffaa00"/>
</g></g></svg>
