<svg xmlns="http://www.w3.org/2000/svg" data-name="Layer 1" viewBox="0 0 100 125" x="0px" y="0px"><title>Artboard 497</title><path d="M98,69.63,95,36.54a16,16,0,0,0-5-10.28c0-.09,0-.17,0-.27V14a8,8,0,0,0-8-8H70a8,8,0,0,0-8,8V26c0,.1,0,.18,0,.27A16,16,0,0,0,59.15,30H54V22a4,4,0,1,0-8,0v8H40.86A16.29,16.29,0,0,0,38,26.26c0-.09,0-.17,0-.27V14a8,8,0,0,0-8-8H18a8,8,0,0,0-8,8V26c0,.1.05.18.05.27A16,16,0,0,0,5,36.55L2,69.63a1.1,1.1,0,0,0,0,.18A1.49,1.49,0,0,0,2,70V86A7.71,7.71,0,0,0,4.12,91.7C6.5,94.05,9.8,94,13,94H36c2.86,0,5.74-.19,7.86-2.3A7.68,7.68,0,0,0,46,86V70a1.49,1.49,0,0,0,0-.18,1.1,1.1,0,0,0,0-.18L45.65,66h8.7L54,69.63a1.1,1.1,0,0,0,0,.18A1.49,1.49,0,0,0,54,70V86a7.71,7.71,0,0,0,2.12,5.71C58.5,94.05,61.8,94,65,94H88c2.86,0,5.74-.19,7.86-2.3A7.68,7.68,0,0,0,98,86V70a1.49,1.49,0,0,0,0-.18A1.1,1.1,0,0,0,98,69.63ZM65,37.27A8,8,0,0,1,73,30H79a8,8,0,0,1,8,7.28L89.62,66H62.38ZM82,14v8.28A16.06,16.06,0,0,0,79,22H73a16.06,16.06,0,0,0-3,.28V14ZM21,30H27a8,8,0,0,1,8,7.28L37.62,66H10.38L13,37.27A8,8,0,0,1,21,30Zm9-16v8.28A16.06,16.06,0,0,0,27,22H21a16.06,16.06,0,0,0-3,.28V14Zm8,71.94a27.25,27.25,0,0,1-2.91.07H12.91A27.32,27.32,0,0,1,10,85.93V74H38ZM44.93,58,43.11,38H56.89L55.07,58ZM90,85.93a27.25,27.25,0,0,1-2.91.07H64.91A27.25,27.25,0,0,1,62,85.93V74H90Z"/><text x="0" y="115" fill="#000000" font-size="5px" font-weight="bold" font-family="'Helvetica Neue', Helvetica, Arial-Unicode, Arial, Sans-serif">Created by Gregor Cresnar</text><text x="0" y="120" fill="#000000" font-size="5px" font-weight="bold" font-family="'Helvetica Neue', Helvetica, Arial-Unicode, Arial, Sans-serif">from the Noun Project</text></svg>